<?xml version="1.0" encoding="UTF-8" standalone="no"?>
<!-- Created with Inkscape (http://www.inkscape.org/) -->

<svg
   width="254.84424"
   height="372.51367"
   viewBox="0 0 67.427536 98.560908"
   version="1.1"
   id="svg1"
   xml:space="preserve"
   inkscape:version="1.4 (e7c3feb1, 2024-10-09)"
   sodipodi:docname="waldorf-logo.svg"
   inkscape:export-filename="waldorf-logo-small.svg"
   inkscape:export-xdpi="96"
   inkscape:export-ydpi="96"
   xmlns:inkscape="http://www.inkscape.org/namespaces/inkscape"
   xmlns:sodipodi="http://sodipodi.sourceforge.net/DTD/sodipodi-0.dtd"
   xmlns="http://www.w3.org/2000/svg"
   xmlns:svg="http://www.w3.org/2000/svg"><sodipodi:namedview
     id="namedview1"
     pagecolor="#ffffff"
     bordercolor="#000000"
     borderopacity="0.25"
     inkscape:showpageshadow="2"
     inkscape:pageopacity="0.0"
     inkscape:pagecheckerboard="0"
     inkscape:deskcolor="#d1d1d1"
     inkscape:document-units="mm"
     inkscape:zoom="1.4823793"
     inkscape:cx="83.312008"
     inkscape:cy="239.47986"
     inkscape:window-width="1920"
     inkscape:window-height="1027"
     inkscape:window-x="0"
     inkscape:window-y="25"
     inkscape:window-maximized="1"
     inkscape:current-layer="g72"><inkscape:page
       x="0"
       y="0"
       width="67.427536"
       height="98.560905"
       id="page2"
       margin="0"
       bleed="0" /></sodipodi:namedview><defs
     id="defs1" /><g
     inkscape:label="Слой 1"
     inkscape:groupmode="layer"
     id="layer1"
     transform="translate(-110.90739,-121.71253)"><path
       id="path27"
       style="fill:#e75111;fill-opacity:0.235294;stroke-width:0.61"
       d="m 143.61392,121.71253 a 6,6 0 0 0 -5.99963,5.99963 6,6 0 0 0 5.99963,6.00015 6,6 0 0 0 6.00015,-6.00015 6,6 0 0 0 -6.00015,-5.99963 z m -25.16642,8.56692 a 6,6 0 0 0 -5.99963,6.00015 6,6 0 0 0 5.99963,6.00015 6,6 0 0 0 6.00015,-6.00015 6,6 0 0 0 -6.00015,-6.00015 z m 14.99288,9.63817 a 6,6 0 0 0 -6.00015,6.00015 6,6 0 0 0 6.00015,6.00015 6,6 0 0 0 6.00015,-6.00015 6,6 0 0 0 -6.00015,-6.00015 z m 18.20561,3.74861 a 6,6 0 0 0 -6.00015,5.99963 6,6 0 0 0 6.00015,6.00015 6,6 0 0 0 6.00015,-6.00015 6,6 0 0 0 -6.00015,-5.99963 z m -31.0565,8.56692 a 6,6 0 0 0 -6.00015,6.00015 6,6 0 0 0 6.00015,6.00015 6,6 0 0 0 6.00015,-6.00015 6,6 0 0 0 -6.00015,-6.00015 z m 16.59899,5.89008 a 6,6 0 0 0 -5.99964,6.00015 6,6 0 0 0 5.99964,6.00015 6,6 0 0 0 6.00015,-6.00015 6,6 0 0 0 -6.00015,-6.00015 z m 17.67024,2.67735 a 6,6 0 0 0 -6.00016,6.00015 6,6 0 0 0 6.00016,6.00015 6,6 0 0 0 6.00015,-6.00015 6,6 0 0 0 -6.00015,-6.00015 z m -30.52114,8.03207 a 6,6 0 0 0 -6.00015,5.99963 6,6 0 0 0 6.00015,6.00015 6,6 0 0 0 6.00015,-6.00015 6,6 0 0 0 -6.00015,-5.99963 z m 51.32658,1.38441 c -4.96869,2.38398 -8.78835,6.97791 -12.66331,8.89041 -31.71169,15.65178 -29.65531,14.07268 -30.17335,16.81138 1.79494,2.93538 2.49955,5.8315 2.53938,8.69559 -3.81282,-7.78352 -11.46385,-15.52406 -24.45949,-20.72535 v 36.38435 h 45.83183 c 16.54699,-11.50701 26.72398,-29.28679 18.92494,-50.05638 z m -64.75677,2.05414 v 9.29762 a 6,6 0 0 0 2.29547,-4.59455 6,6 0 0 0 -2.29547,-4.70307 z m 30.56506,3.52226 a 6,6 0 0 0 -6.00015,6.00015 6,6 0 0 0 6.00015,5.99964 6,6 0 0 0 5.99964,-5.99964 6,6 0 0 0 -5.99964,-6.00015 z" /></g></svg>
