<?xml version="1.0" encoding="UTF-8" standalone="no"?>
<!-- Created with Inkscape (http://www.inkscape.org/) -->

<svg
   width="254.84421"
   height="372.5137"
   viewBox="0 0 67.427528 98.560917"
   version="1.1"
   id="svg1"
   xml:space="preserve"
   inkscape:version="1.4 (e7c3feb1, 2024-10-09)"
   sodipodi:docname="waldorf-logo.svg"
   inkscape:export-filename="waldorf-logo-small.svg"
   inkscape:export-xdpi="96"
   inkscape:export-ydpi="96"
   xmlns:inkscape="http://www.inkscape.org/namespaces/inkscape"
   xmlns:sodipodi="http://sodipodi.sourceforge.net/DTD/sodipodi-0.dtd"
   xmlns="http://www.w3.org/2000/svg"
   xmlns:svg="http://www.w3.org/2000/svg"><sodipodi:namedview
     id="namedview1"
     pagecolor="#ffffff"
     bordercolor="#000000"
     borderopacity="0.25"
     inkscape:showpageshadow="2"
     inkscape:pageopacity="0.0"
     inkscape:pagecheckerboard="0"
     inkscape:deskcolor="#d1d1d1"
     inkscape:document-units="mm"
     inkscape:zoom="1.4823793"
     inkscape:cx="83.312008"
     inkscape:cy="239.47986"
     inkscape:window-width="1920"
     inkscape:window-height="1027"
     inkscape:window-x="0"
     inkscape:window-y="25"
     inkscape:window-maximized="1"
     inkscape:current-layer="g72"><inkscape:page
       x="0"
       y="3.4496923e-16"
       width="67.427528"
       height="98.560921"
       id="page2"
       margin="0"
       bleed="0" /></sodipodi:namedview><defs
     id="defs1" /><g
     inkscape:label="Слой 1"
     inkscape:groupmode="layer"
     id="layer1"
     transform="translate(134.68877,-122.42647)"><path
       id="path24"
       style="fill:#23b123;fill-opacity:0.266667;stroke-width:0.61"
       d="m -101.98224,122.42647 a 6,6 0 0 0 -5.99963,5.99963 6,6 0 0 0 5.99963,6.00015 6,6 0 0 0 6.000149,-6.00015 6,6 0 0 0 -6.000149,-5.99963 z m -25.16642,8.56692 a 6,6 0 0 0 -5.99963,6.00015 6,6 0 0 0 5.99963,6.00015 6,6 0 0 0 6.00015,-6.00015 6,6 0 0 0 -6.00015,-6.00015 z m 14.99288,9.63817 a 6,6 0 0 0 -6.00015,6.00015 6,6 0 0 0 6.00015,6.00015 6,6 0 0 0 6.00015,-6.00015 6,6 0 0 0 -6.00015,-6.00015 z m 18.205609,3.74861 a 6,6 0 0 0 -6.00015,5.99963 6,6 0 0 0 6.00015,6.00015 6,6 0 0 0 6.00015,-6.00015 6,6 0 0 0 -6.00015,-5.99963 z m -31.056499,8.56692 a 6,6 0 0 0 -6.00015,6.00015 6,6 0 0 0 6.00015,6.00015 6,6 0 0 0 6.00015,-6.00015 6,6 0 0 0 -6.00015,-6.00015 z m 16.59899,5.89008 a 6,6 0 0 0 -5.99964,6.00015 6,6 0 0 0 5.99964,6.00015 6,6 0 0 0 6.00015,-6.00015 6,6 0 0 0 -6.00015,-6.00015 z m 17.670239,2.67735 a 6,6 0 0 0 -6.00016,6.00015 6,6 0 0 0 6.00016,6.00015 6,6 0 0 0 6.00015,-6.00015 6,6 0 0 0 -6.00015,-6.00015 z m -30.521139,8.03207 a 6,6 0 0 0 -6.00015,5.99963 6,6 0 0 0 6.00015,6.00015 6,6 0 0 0 6.00015,-6.00015 6,6 0 0 0 -6.00015,-5.99963 z m 51.326579,1.38441 c -4.96869,2.38398 -8.78835,6.97791 -12.66331,8.89041 -31.711689,15.65178 -29.655309,14.07268 -30.173349,16.81138 1.79494,2.93538 2.49955,5.8315 2.53938,8.69559 -3.81282,-7.78352 -11.46385,-15.52406 -24.45949,-20.72535 v 36.38435 h 45.831829 c 16.54699,-11.50701 26.72398,-29.28679 18.92494,-50.05638 z m -64.756769,2.05414 v 9.29762 a 6,6 0 0 0 2.29547,-4.59455 6,6 0 0 0 -2.29547,-4.70307 z m 30.56506,3.52226 a 6,6 0 0 0 -6.00015,6.00015 6,6 0 0 0 6.00015,5.99964 6,6 0 0 0 5.999639,-5.99964 6,6 0 0 0 -5.999639,-6.00015 z" /></g></svg>
